<svg width="62" height="44" xmlns="http://www.w3.org/2000/svg"><g fill="#fff" fill-rule="evenodd"><path d="M13.908 31.782h-7.65l-1.104 3.403H1.595l5.897-17.729h5.053l5.988 17.729h-3.495l-1.13-3.403zm-.778-2.48l-3.066-9.235-3.014 9.235h6.08zM36.522 17.456v17.729H30.82l-5.066-9.728c-.252-.485-.645-1.333-1.182-2.546l-.571-1.272-.558-1.273h-.13l.051 1.168.04 1.156.025 2.325v10.17h-3.364V17.456h5.703l4.61 8.988c.407.797.88 1.763 1.416 2.896l.675 1.442.676 1.455h.117l-.04-1.143-.039-1.142-.025-2.287V17.456h3.364M39.639 35.185V17.456h8.715c2.043 0 3.435.327 4.177.98.74.654 1.11 1.886 1.11 3.696 0 2.19-.871 3.481-2.611 3.87v.066c2.026.311 3.039 1.719 3.039 4.22 0 1.81-.39 3.08-1.17 3.806-.779.728-2.138 1.091-4.077 1.091H39.64zm3.364-10.286h4.117c1.334 0 2.184-.148 2.552-.442.369-.295.553-.974.553-2.04 0-1.419-.806-2.13-2.416-2.13h-4.806V24.9zm0 7.454h3.69l1.18-.025c1.135 0 1.882-.16 2.241-.48.359-.32.539-.996.539-2.027 0-1.073-.189-1.749-.566-2.026-.376-.277-1.304-.415-2.785-.415h-4.299v4.973zM56.51 35.185h3.365V17.456H56.51zM24.14.835c.123.625.749 3.597.915 4.186a1.909 1.909 0 0 0-.284-.023c-.112 0-.199.012-.279.023-.042-.432-.21-1.317-.278-1.624a20.703 20.703 0 0 0-.824-.018c-.272 0-.544.013-.816.018a21.344 21.344 0 0 0-.972 1.624c-.056-.011-.112-.023-.198-.023-.069 0-.142.012-.236.023a152.068 152.068 0 0 0 2.11-3.08c.31-.463.527-.764.744-1.106h.118zm-.315.733h-.02l-1.077 1.595a14.608 14.608 0 0 0 1.436 0l-.34-1.595zM26.12 5.021a1.294 1.294 0 0 0-.5 0c.402-1.45.842-3.621.972-4.5.067.013.13.025.235.025.093 0 .198-.012.285-.025-.093.32-.83 3.471-.991 4.5M27.794 3.926c-.1-.042-.446-.186-.446-.673 0-.566.47-1.137 1.355-1.137.204 0 .29.024.47.072.112.03.187.03.317.03.148 0 .451-.018.612-.024 0 .036-.013.078-.013.126s.013.09.013.127c-.297-.018-.44-.024-.588-.03a.713.713 0 0 1 .173.493c0 .337-.179.758-.594.98-.29.157-.637.169-.835.169-.136 0-.266-.006-.36-.012-.068.042-.253.144-.253.33 0 .241.26.248.457.248.7.005.923.005 1.152.137.229.133.272.373.272.524 0 .463-.408 1.305-1.596 1.305-.292 0-.576-.048-.78-.21a.742.742 0 0 1-.286-.571c0-.284.174-.548.41-.692.136-.085.254-.126.322-.15l.005-.043c-.093-.024-.34-.096-.34-.348 0-.374.346-.524.533-.608v-.043zm.203 2.485c.743 0 1.108-.511 1.108-.938 0-.47-.508-.488-.841-.488-.162 0-.465.013-.68.15a.746.746 0 0 0-.348.644c0 .451.365.632.761.632zm.397-2.527c.6 0 .823-.655.823-1.023 0-.348-.211-.57-.545-.57-.625 0-.847.643-.847.992 0 .457.308.601.569.601zM32.486 4.811a2.04 2.04 0 0 1-1.008.265c-.533 0-1.232-.283-1.232-1.24 0-.944.643-1.714 1.59-1.714.588 0 1.109.258 1.109.986 0 .223-.044.385-.07.488-.456-.024-.63-.03-1.367-.03-.235 0-.557.006-.749.012-.012.078-.03.192-.03.348 0 .783.55.933.897.933.477 0 .78-.217.922-.319h.02l-.082.271zm-1.684-1.474c.254.018.589.024.843.024.24 0 .594 0 .823-.024a1.25 1.25 0 0 0 .037-.325c0-.535-.347-.716-.67-.716-.333 0-.846.211-1.033 1.04zM34.252 2.621h.012c.142-.144.458-.48 1.016-.48.594 0 .704.372.76.582.192-.234.514-.583 1.083-.583.539 0 .805.337.805.637 0 .127-.043.331-.092.56L37.6 4.432c-.075.343-.087.493-.1.59a1.392 1.392 0 0 0-.507 0c.106-.295.483-1.75.483-2.07 0-.337-.235-.529-.563-.529a.931.931 0 0 0-.885.685c-.1.325-.323 1.45-.396 1.913a1.532 1.532 0 0 0-.236-.023c-.093 0-.186.012-.266.023.137-.415.47-1.75.47-2.117 0-.355-.302-.481-.55-.481-.137 0-.669.042-.885.697-.1.301-.34 1.534-.385 1.901a1.458 1.458 0 0 0-.247-.023c-.087 0-.18.012-.248.023.206-.692.533-2.183.62-2.851.049.012.142.024.216.024.086 0 .174-.012.254-.024l-.123.451M40.74 4.811a2.043 2.043 0 0 1-1.009.265c-.533 0-1.231-.283-1.231-1.24 0-.944.643-1.714 1.59-1.714.588 0 1.108.258 1.108.986 0 .223-.043.385-.069.488a19.94 19.94 0 0 0-1.368-.03c-.234 0-.556.006-.748.012a1.961 1.961 0 0 0-.031.348c0 .783.551.933.898.933.476 0 .78-.217.922-.319h.018l-.08.271zm-1.683-1.474c.253.018.587.024.842.024.24 0 .594 0 .823-.024a1.25 1.25 0 0 0 .036-.325c0-.535-.346-.716-.668-.716-.334 0-.847.211-1.033 1.04zM43.836 4.811a2.04 2.04 0 0 1-1.009.265c-.533 0-1.232-.283-1.232-1.24 0-.944.644-1.714 1.59-1.714.589 0 1.11.258 1.11.986 0 .223-.045.385-.07.488a19.96 19.96 0 0 0-1.367-.03c-.236 0-.557.006-.749.012a2.027 2.027 0 0 0-.03.348c0 .783.55.933.897.933.476 0 .78-.217.922-.319h.018l-.08.271zm-1.683-1.474c.253.018.587.024.841.024.241 0 .594 0 .823-.024a1.22 1.22 0 0 0 .037-.325c0-.535-.346-.716-.668-.716-.335 0-.848.211-1.033 1.04zM45.626 2.615l.025.012c.173-.21.551-.487 1.022-.487.438 0 .866.24.866.721 0 .157-.013.217-.142.759-.069.283-.255 1.148-.28 1.401a1.372 1.372 0 0 0-.507 0c.094-.27.464-1.648.464-2.063 0-.361-.303-.535-.612-.535-.204 0-.711.096-.898.643-.142.415-.396 1.763-.427 1.955a1.242 1.242 0 0 0-.477 0c.168-.553.545-2.364.625-2.851a1.138 1.138 0 0 0 .459 0l-.118.445M51.013.846c.359.626 2.061 3.032 2.365 3.376.104-.38.519-2.317.637-3.321.056.011.142.023.217.023.079 0 .123-.012.186-.023-.23.77-.868 3.627-.936 4.186h-.086c-.192-.33-2.11-3.037-2.365-3.35-.18.71-.606 2.73-.65 3.284a1.097 1.097 0 0 0-.21-.023c-.068 0-.155.012-.216.023.284-.824.891-3.64.984-4.175h.074M56.759 4.612l-.025-.023a1.38 1.38 0 0 1-1.053.498c-.408 0-.866-.246-.866-.691 0-.15.08-.464.191-.95.05-.211.186-.843.243-1.276.074.012.167.024.27.024.102 0 .187-.012.268-.024-.166.602-.484 1.72-.484 2.052 0 .372.224.577.602.577.476 0 .798-.331.922-.698.154-.451.389-1.822.408-1.931.087.012.168.024.247.024.094 0 .18-.012.255-.024-.125.397-.545 2.123-.626 2.851-.074-.011-.142-.023-.223-.023-.092 0-.173.012-.24.023l.11-.409M59.372 1.418c-.08.276-.143.554-.205.83.193 0 .428-.018.644-.024a.86.86 0 0 0-.037.247c-.216-.006-.47-.024-.656-.024l-.242 1.13c-.055.26-.141.65-.141.843 0 .319.258.44.438.44a.826.826 0 0 0 .41-.121l-.013.156c-.167.126-.426.186-.631.186-.321 0-.663-.192-.663-.565 0-.157.044-.337.087-.536.179-.824.21-.914.334-1.533-.118 0-.272.006-.408.011a.57.57 0 0 0 .036-.234c.132.006.293.025.397.025l.112-.638.538-.193M10.3 9.557c.718.066.929.5.929.812 0 .44-.29.914-.799 1.161-.408.2-.884.217-1.113.217-.124 0-.669-.024-.78-.024-.118 0-.198.012-.279.024a50.33 50.33 0 0 0 .897-4.121c.087.006.223.024.328.024.236 0 .52-.024.805-.024.34 0 .576.042.761.138.285.151.384.422.384.62 0 .602-.618 1.041-1.12 1.13l-.013.043zm-.327.114a3.215 3.215 0 0 0-.427-.024c-.112 0-.242 0-.347.006-.167.77-.291 1.384-.372 1.854.155.03.304.03.397.03.204 0 .525-.019.792-.127.383-.156.699-.595.699-1.034 0-.428-.334-.65-.742-.705zm.216-1.846c-.185 0-.377.005-.563.024-.21.842-.284 1.155-.377 1.594.093.012.185.018.322.018.216 0 .587-.018.865-.18a.98.98 0 0 0 .495-.837c0-.445-.32-.62-.742-.62zM14.128 11.536a2.04 2.04 0 0 1-1.01.265c-.533 0-1.231-.283-1.231-1.239 0-.945.644-1.715 1.59-1.715.588 0 1.11.26 1.11.987 0 .222-.045.384-.07.487-.458-.024-.631-.03-1.369-.03-.234 0-.556.006-.747.012a2.04 2.04 0 0 0-.031.349c0 .782.55.933.896.933.477 0 .78-.217.923-.32h.019l-.08.271zm-1.685-1.473c.254.018.589.024.842.024.242 0 .595 0 .824-.024.019-.073.037-.169.037-.326 0-.535-.347-.715-.669-.715-.334 0-.847.21-1.034 1.04zM16.703 8.842c.979 0 1.318.565 1.318 1.173 0 .884-.687 1.792-1.751 1.792-1.021 0-1.294-.692-1.294-1.21 0-.86.656-1.755 1.727-1.755zm-.452 2.772c.935 0 1.282-1.112 1.282-1.708 0-.5-.29-.872-.824-.872-.897 0-1.243 1.04-1.243 1.708 0 .505.228.872.785.872zM19.07 10.652c-.1-.042-.447-.187-.447-.674 0-.565.47-1.136 1.356-1.136.204 0 .291.023.471.072.11.03.185.03.315.03.149 0 .452-.019.613-.025 0 .037-.013.078-.013.127 0 .048.013.09.013.126-.297-.018-.44-.024-.589-.03a.713.713 0 0 1 .174.493c0 .337-.18.758-.594.98-.291.158-.637.17-.836.17-.135 0-.266-.006-.359-.012-.068.042-.253.144-.253.33 0 .241.26.247.457.247.7.006.923.006 1.151.138.23.133.273.373.273.523 0 .464-.409 1.306-1.597 1.306-.29 0-.576-.048-.78-.21a.742.742 0 0 1-.286-.572c0-.283.174-.547.41-.692.136-.084.254-.126.322-.15l.006-.043c-.093-.023-.34-.096-.34-.348 0-.373.346-.523.532-.608v-.042zm.203 2.485c.743 0 1.108-.512 1.108-.94 0-.468-.507-.486-.842-.486-.161 0-.464.012-.68.15a.746.746 0 0 0-.348.644c0 .451.366.632.762.632zm.396-2.527c.601 0 .824-.656.824-1.023 0-.348-.211-.572-.545-.572-.626 0-.848.644-.848.994 0 .456.31.6.569.6zM23.762 11.536a2.036 2.036 0 0 1-1.009.265c-.533 0-1.232-.283-1.232-1.239 0-.945.644-1.715 1.59-1.715.59 0 1.11.26 1.11.987 0 .222-.044.384-.069.487-.458-.024-.632-.03-1.368-.03-.236 0-.557.006-.75.012a2.04 2.04 0 0 0-.03.349c0 .782.551.933.898.933.476 0 .78-.217.923-.32h.018l-.08.271zm-1.683-1.473c.253.018.587.024.841.024.24 0 .595 0 .824-.024.018-.073.037-.169.037-.326 0-.535-.347-.715-.67-.715-.333 0-.847.21-1.032 1.04zM25.552 9.34l.025.013c.173-.21.55-.488 1.021-.488.44 0 .866.241.866.722 0 .157-.012.217-.141.758-.07.283-.254 1.15-.279 1.402a1.396 1.396 0 0 0-.507 0c.091-.27.463-1.648.463-2.063 0-.361-.303-.536-.612-.536-.205 0-.713.096-.898.644-.143.415-.396 1.762-.427 1.955a1.253 1.253 0 0 0-.23-.024c-.086 0-.179.012-.247.024.168-.553.545-2.365.625-2.852a1.134 1.134 0 0 0 .459 0l-.118.445M30.331 11.211c-.203.253-.495.614-1.1.614-.75 0-1.115-.553-1.115-1.173 0-.758.526-1.799 1.615-1.799.662 0 .848.403.935.596h.025c.148-.758.322-1.546.426-2.202.068.012.156.024.248.024.093 0 .174-.012.242-.024-.359 1.426-.49 2.087-.755 3.357-.062.295-.149.74-.21 1.143-.056-.012-.106-.024-.212-.024-.105 0-.167.012-.234.024l.135-.536zm-.971.38c.934 0 1.2-1.18 1.2-1.703 0-.24-.08-.818-.755-.818-.964 0-1.194 1.155-1.194 1.618 0 .584.273.903.749.903zM33.854 11.536a2.03 2.03 0 0 1-1.008.265c-.532 0-1.232-.283-1.232-1.239 0-.945.644-1.715 1.59-1.715.59 0 1.108.26 1.108.987 0 .222-.042.384-.068.487-.458-.024-.63-.03-1.367-.03-.235 0-.557.006-.749.012a2.04 2.04 0 0 0-.03.349c0 .782.55.933.897.933.476 0 .778-.217.921-.32h.019l-.08.271zm-1.683-1.473c.254.018.588.024.842.024.241 0 .594 0 .823-.024.018-.073.037-.169.037-.326 0-.535-.346-.715-.668-.715-.334 0-.848.21-1.034 1.04zM37.397 7.626c.074.012.18.024.266.024.1 0 .204-.012.285-.024a50.357 50.357 0 0 0-.904 4.12 1.743 1.743 0 0 0-.272-.023c-.093 0-.199.012-.279.024.316-1.161.725-3.063.904-4.121M39.088 9.34l.024.013c.174-.21.551-.488 1.021-.488.44 0 .867.241.867.722 0 .157-.012.217-.142.758-.068.283-.254 1.15-.279 1.402a1.376 1.376 0 0 0-.508 0c.093-.27.465-1.648.465-2.063 0-.361-.304-.536-.614-.536-.203 0-.71.096-.896.644-.143.415-.397 1.762-.427 1.955a1.258 1.258 0 0 0-.23-.024c-.086 0-.18.012-.247.024.167-.553.544-2.365.625-2.852a1.133 1.133 0 0 0 .458 0l-.117.445M43.359 9.376c-.06-.222-.272-.354-.506-.354a.583.583 0 0 0-.589.571c0 .295.254.41.532.53.26.114.557.246.557.637 0 .554-.557 1.053-1.275 1.053-.253 0-.452-.049-.668-.174.093-.144.162-.313.198-.403h.044c.092.24.34.36.612.36.47 0 .674-.355.674-.62 0-.263-.166-.342-.494-.492-.266-.12-.564-.259-.564-.692 0-.41.304-.97 1.133-.97.223 0 .365.037.564.122-.125.27-.143.354-.16.432h-.058M45.261 8.144c-.08.276-.143.553-.205.83.192 0 .427-.018.644-.024a.864.864 0 0 0-.038.246c-.215-.006-.469-.024-.655-.024l-.241 1.131c-.056.26-.143.65-.143.843 0 .318.26.439.44.439a.822.822 0 0 0 .408-.121l-.012.157c-.167.126-.427.186-.631.186-.322 0-.663-.193-.663-.566 0-.156.043-.336.086-.535.18-.824.21-.914.335-1.534-.117 0-.272.006-.408.012a.58.58 0 0 0 .037-.234c.13.006.291.023.396.023l.11-.637.54-.192M48.078 11.536a2.037 2.037 0 0 1-1.01.265c-.532 0-1.231-.283-1.231-1.239 0-.945.644-1.715 1.591-1.715.588 0 1.107.26 1.107.987 0 .222-.043.384-.067.487-.458-.024-.632-.03-1.368-.03-.237 0-.557.006-.75.012-.011.079-.03.193-.03.349 0 .782.55.933.897.933.477 0 .78-.217.923-.32h.018l-.08.271zm-1.684-1.473c.253.018.588.024.841.024.243 0 .595 0 .823-.024a1.2 1.2 0 0 0 .038-.326c0-.535-.347-.715-.668-.715-.335 0-.848.21-1.034 1.04zM49.397 11.747a1.31 1.31 0 0 0-.502 0c.404-1.45.843-3.621.972-4.5.068.012.13.024.236.024.093 0 .197-.012.285-.024-.093.319-.83 3.471-.991 4.5M50.89 11.747a1.32 1.32 0 0 0-.502 0c.403-1.45.841-3.621.971-4.5.068.012.13.024.235.024.094 0 .2-.012.286-.024-.093.319-.83 3.471-.99 4.5M52.4 11.747a2.377 2.377 0 0 0-.284-.024c-.1 0-.18.012-.242.024.271-.854.607-2.623.638-2.852.092.013.173.024.26.024.092 0 .18-.011.254-.024-.118.398-.545 2.136-.626 2.852zm.582-4.09c.168 0 .296.132.296.288a.292.292 0 0 1-.296.289.293.293 0 0 1-.297-.29c0-.155.13-.288.297-.288zM54.345 9.34l.024.013c.173-.21.55-.488 1.021-.488.44 0 .867.241.867.722 0 .157-.012.217-.143.758-.068.283-.253 1.15-.278 1.402a1.389 1.389 0 0 0-.508 0c.093-.27.465-1.648.465-2.063 0-.361-.304-.536-.614-.536-.204 0-.71.096-.896.644-.143.415-.396 1.762-.428 1.955a1.253 1.253 0 0 0-.229-.024c-.086 0-.18.012-.247.024.167-.553.544-2.365.625-2.852a1.128 1.128 0 0 0 .458 0l-.117.445M57.496 10.652c-.099-.042-.445-.187-.445-.674 0-.565.47-1.136 1.356-1.136.203 0 .29.023.47.072.111.03.185.03.315.03.148 0 .453-.019.612-.025 0 .037-.012.078-.012.127 0 .048.012.09.012.126a24.32 24.32 0 0 0-.587-.03.714.714 0 0 1 .173.493c0 .337-.18.758-.594.98-.29.158-.637.17-.835.17-.137 0-.267-.006-.36-.012-.068.042-.253.144-.253.33 0 .241.26.247.458.247.7.006.922.006 1.151.138.23.133.272.373.272.523 0 .464-.408 1.306-1.596 1.306-.292 0-.576-.048-.781-.21a.74.74 0 0 1-.284-.572c0-.283.173-.547.408-.692.137-.084.254-.126.322-.15l.007-.043c-.093-.023-.341-.096-.341-.348 0-.373.346-.523.532-.608v-.042zm.204 2.485c.743 0 1.108-.512 1.108-.94 0-.468-.508-.486-.841-.486-.16 0-.465.012-.682.15a.748.748 0 0 0-.347.644c0 .451.367.632.762.632zm.397-2.527c.6 0 .823-.656.823-1.023 0-.348-.21-.572-.545-.572-.625 0-.848.644-.848.994 0 .456.309.6.57.6zM1.159 43.023a1.13 1.13 0 0 1-1.127-1.127v-.21c0-.62.508-1.126 1.127-1.126H60.54c.62 0 1.127.507 1.127 1.126v.21a1.13 1.13 0 0 1-1.127 1.127H1.159"/></g></svg>