<?xml version="1.0" encoding="UTF-8"?>
<svg id="Layer_1" xmlns="http://www.w3.org/2000/svg" viewBox="0 0 138.97 106.77">
  <defs>
    <style>
      .cls-1 {
        fill: none;
        stroke: #000;
        stroke-miterlimit: 10;
        stroke-width: 3px;
      }
    </style>
  </defs>
  <path class="cls-1" d="M2.17,74.63c-.97,9.08-1.84,18.81,4.76,26.28,3.33,3.78,8.66,5.45,13.35,3.61,8.91-3.48,8.26-15.09,6.43-23.94-2.14-10.32-4.27-20.64-6.41-30.96-1.23-5.96-2.47-12.14-.14-18.04.9-2.27,2.38-4.33,4.39-5.71,7.45-5.12,15.76,1.09,18.76,8.32,2.56,6.16,2.57,13.05,4.11,19.53,2.83,11.91,11.36,22.15,22.21,27.74,6.11,3.15,13.24-2.03,12.37-8.85l-6.51-51.24c-.47-3.67-.87-7.69,2.66-10.37,2.79-2.12,6.69-2.08,9.69-.27,6.28,3.79,7.56,11.04,8.71,17.72,1.83,10.64,4.3,21.85,13.41,28.73,4.11,3.11,9.36,4.59,14.37,3.39,9.8-2.34,12.42-11.89,12.98-20.47.88-13.52-1.82-27.26-7.75-39.44"/>
</svg>