<?xml version="1.0" encoding="UTF-8"?>
<svg id="Layer_1" xmlns="http://www.w3.org/2000/svg" viewBox="0 0 92.22 109.66">
  <defs>
    <style>
      .cls-1 {
        fill: none;
        stroke: #000;
        stroke-miterlimit: 10;
        stroke-width: 3px;
      }
    </style>
  </defs>
  <path class="cls-1" d="M1.3.75c3.33,5.73,6.66,11.45,9.99,17.18,2.58,4.43,5.25,9.27,4.67,14.37s-6.15,9.82-10.74,7.53c-.14-4.06-.28-8.11-.41-12.17,13.2-2.03,27.31,3.51,35.59,14,8.28,10.48,10.41,25.49,5.38,37.86-3.7,9.09-11.8,16.98-21.58,17.81-9.78.83-20.12-7.51-19.2-17.28.62-6.55,5.87-12.01,12.01-14.37s12.99-2.08,19.46-.89c23.98,4.43,45.2,21.71,54.38,44.3"/>
</svg>